<svg id="Component_1_1" data-name="Component 1 – 1" xmlns="http://www.w3.org/2000/svg" width="960" height="860" viewBox="0 0 960 860">
  <rect id="Rectangle_38" data-name="Rectangle 38" width="48" height="48" transform="translate(0 812)" fill="#be1e2d"/>
  <rect id="Rectangle_39" data-name="Rectangle 39" width="48" height="48" transform="translate(96 812)" fill="#be1e2d"/>
  <rect id="Rectangle_40" data-name="Rectangle 40" width="48" height="48" transform="translate(192 812)" fill="#be1e2d"/>
  <rect id="Rectangle_41" data-name="Rectangle 41" width="48" height="48" transform="translate(288 812)" fill="#be1e2d"/>
  <rect id="Rectangle_42" data-name="Rectangle 42" width="48" height="48" transform="translate(384 812)" fill="#be1e2d"/>
  <rect id="Rectangle_43" data-name="Rectangle 43" width="48" height="48" transform="translate(480 812)" fill="#be1e2d"/>
  <rect id="Rectangle_44" data-name="Rectangle 44" width="48" height="48" transform="translate(576 812)" fill="#be1e2d"/>
  <rect id="Rectangle_45" data-name="Rectangle 45" width="48" height="48" transform="translate(672 812)" fill="#be1e2d"/>
  <rect id="Rectangle_46" data-name="Rectangle 46" width="48" height="48" transform="translate(768 812)" fill="#be1e2d"/>
  <rect id="Rectangle_47" data-name="Rectangle 47" width="48" height="48" transform="translate(864 812)" fill="#be1e2d"/>
  <rect id="Rectangle_48" data-name="Rectangle 48" width="48" height="48" transform="translate(48 764)" fill="#be1e2d"/>
  <rect id="Rectangle_49" data-name="Rectangle 49" width="48" height="48" transform="translate(144 764)" fill="#be1e2d"/>
  <rect id="Rectangle_50" data-name="Rectangle 50" width="48" height="48" transform="translate(240 764)" fill="#be1e2d"/>
  <rect id="Rectangle_51" data-name="Rectangle 51" width="48" height="48" transform="translate(336 764)" fill="#be1e2d"/>
  <rect id="Rectangle_52" data-name="Rectangle 52" width="48" height="48" transform="translate(432 764)" fill="#be1e2d"/>
  <rect id="Rectangle_53" data-name="Rectangle 53" width="48" height="48" transform="translate(528 764)" fill="#be1e2d"/>
  <rect id="Rectangle_54" data-name="Rectangle 54" width="48" height="48" transform="translate(624 764)" fill="#be1e2d"/>
  <rect id="Rectangle_55" data-name="Rectangle 55" width="48" height="48" transform="translate(720 764)" fill="#be1e2d"/>
  <rect id="Rectangle_56" data-name="Rectangle 56" width="48" height="48" transform="translate(816 764)" fill="#be1e2d"/>
  <rect id="Rectangle_57" data-name="Rectangle 57" width="48" height="48" transform="translate(912 764)" fill="#be1e2d"/>
  <rect id="Rectangle_58" data-name="Rectangle 58" width="48" height="48" transform="translate(0 716)" fill="#be1e2d"/>
  <rect id="Rectangle_59" data-name="Rectangle 59" width="48" height="48" transform="translate(96 716)" fill="#be1e2d"/>
  <rect id="Rectangle_60" data-name="Rectangle 60" width="48" height="48" transform="translate(192 716)" fill="#be1e2d"/>
  <rect id="Rectangle_61" data-name="Rectangle 61" width="48" height="48" transform="translate(288 716)" fill="#be1e2d"/>
  <rect id="Rectangle_62" data-name="Rectangle 62" width="48" height="48" transform="translate(384 716)" fill="#be1e2d"/>
  <rect id="Rectangle_63" data-name="Rectangle 63" width="48" height="48" transform="translate(480 716)" fill="#be1e2d"/>
  <rect id="Rectangle_64" data-name="Rectangle 64" width="48" height="48" transform="translate(576 716)" fill="#be1e2d"/>
  <rect id="Rectangle_65" data-name="Rectangle 65" width="48" height="48" transform="translate(672 716)" fill="#be1e2d"/>
  <rect id="Rectangle_66" data-name="Rectangle 66" width="48" height="48" transform="translate(768 716)" fill="#be1e2d"/>
  <rect id="Rectangle_67" data-name="Rectangle 67" width="48" height="48" transform="translate(864 716)" fill="#be1e2d"/>
  <rect id="Rectangle_68" data-name="Rectangle 68" width="48" height="48" transform="translate(48 668)" fill="#be1e2d"/>
  <rect id="Rectangle_69" data-name="Rectangle 69" width="48" height="48" transform="translate(144 668)" fill="#be1e2d"/>
  <rect id="Rectangle_70" data-name="Rectangle 70" width="48" height="48" transform="translate(240 668)" fill="#be1e2d"/>
  <rect id="Rectangle_71" data-name="Rectangle 71" width="48" height="48" transform="translate(336 668)" fill="#be1e2d"/>
  <rect id="Rectangle_72" data-name="Rectangle 72" width="48" height="48" transform="translate(432 668)" fill="#be1e2d"/>
  <rect id="Rectangle_73" data-name="Rectangle 73" width="48" height="48" transform="translate(528 668)" fill="#be1e2d"/>
  <rect id="Rectangle_74" data-name="Rectangle 74" width="48" height="48" transform="translate(624 668)" fill="#be1e2d"/>
  <rect id="Rectangle_75" data-name="Rectangle 75" width="48" height="48" transform="translate(720 668)" fill="#be1e2d"/>
  <rect id="Rectangle_76" data-name="Rectangle 76" width="48" height="48" transform="translate(816 668)" fill="#be1e2d"/>
  <rect id="Rectangle_77" data-name="Rectangle 77" width="48" height="48" transform="translate(912 668)" fill="#be1e2d"/>
  <rect id="Rectangle_78" data-name="Rectangle 78" width="48" height="48" transform="translate(0 620)" fill="#be1e2d"/>
  <rect id="Rectangle_79" data-name="Rectangle 79" width="48" height="48" transform="translate(96 620)" fill="#be1e2d"/>
  <rect id="Rectangle_80" data-name="Rectangle 80" width="48" height="48" transform="translate(192 620)" fill="#be1e2d"/>
  <rect id="Rectangle_81" data-name="Rectangle 81" width="48" height="48" transform="translate(288 620)" fill="#be1e2d"/>
  <rect id="Rectangle_82" data-name="Rectangle 82" width="48" height="48" transform="translate(384 620)" fill="#be1e2d"/>
  <rect id="Rectangle_83" data-name="Rectangle 83" width="48" height="48" transform="translate(480 620)" fill="#be1e2d"/>
  <rect id="Rectangle_84" data-name="Rectangle 84" width="48" height="48" transform="translate(576 620)" fill="#be1e2d"/>
  <rect id="Rectangle_85" data-name="Rectangle 85" width="48" height="48" transform="translate(672 620)" fill="#be1e2d"/>
  <rect id="Rectangle_86" data-name="Rectangle 86" width="48" height="48" transform="translate(768 620)" fill="#be1e2d"/>
  <rect id="Rectangle_87" data-name="Rectangle 87" width="48" height="48" transform="translate(864 620)" fill="#be1e2d"/>
  <rect id="Rectangle_88" data-name="Rectangle 88" width="48" height="48" transform="translate(48 572)" fill="#be1e2d"/>
  <rect id="Rectangle_89" data-name="Rectangle 89" width="48" height="48" transform="translate(144 572)" fill="#be1e2d"/>
  <rect id="Rectangle_90" data-name="Rectangle 90" width="48" height="48" transform="translate(240 572)" fill="#be1e2d"/>
  <rect id="Rectangle_91" data-name="Rectangle 91" width="48" height="48" transform="translate(336 572)" fill="#be1e2d"/>
  <rect id="Rectangle_92" data-name="Rectangle 92" width="48" height="48" transform="translate(432 572)" fill="#be1e2d"/>
  <rect id="Rectangle_93" data-name="Rectangle 93" width="48" height="48" transform="translate(528 572)" fill="#be1e2d"/>
  <rect id="Rectangle_94" data-name="Rectangle 94" width="48" height="48" transform="translate(624 572)" fill="#be1e2d"/>
  <rect id="Rectangle_95" data-name="Rectangle 95" width="48" height="48" transform="translate(720 572)" fill="#be1e2d"/>
  <rect id="Rectangle_96" data-name="Rectangle 96" width="48" height="48" transform="translate(816 572)" fill="#be1e2d"/>
  <rect id="Rectangle_97" data-name="Rectangle 97" width="48" height="48" transform="translate(912 572)" fill="#be1e2d"/>
  <rect id="Rectangle_98" data-name="Rectangle 98" width="48" height="48" transform="translate(0 528)" fill="#be1e2d"/>
  <rect id="Rectangle_99" data-name="Rectangle 99" width="48" height="48" transform="translate(96 528)" fill="#be1e2d"/>
  <rect id="Rectangle_100" data-name="Rectangle 100" width="48" height="48" transform="translate(192 528)" fill="#be1e2d"/>
  <rect id="Rectangle_101" data-name="Rectangle 101" width="48" height="48" transform="translate(288 528)" fill="#be1e2d"/>
  <rect id="Rectangle_102" data-name="Rectangle 102" width="48" height="48" transform="translate(384 528)" fill="#be1e2d"/>
  <rect id="Rectangle_103" data-name="Rectangle 103" width="48" height="48" transform="translate(480 528)" fill="#be1e2d"/>
  <rect id="Rectangle_104" data-name="Rectangle 104" width="48" height="48" transform="translate(576 528)" fill="#be1e2d"/>
  <rect id="Rectangle_105" data-name="Rectangle 105" width="48" height="48" transform="translate(672 528)" fill="#be1e2d"/>
  <rect id="Rectangle_106" data-name="Rectangle 106" width="48" height="48" transform="translate(768 528)" fill="#be1e2d"/>
  <rect id="Rectangle_107" data-name="Rectangle 107" width="48" height="48" transform="translate(864 528)" fill="#be1e2d"/>
  <rect id="Rectangle_108" data-name="Rectangle 108" width="48" height="48" transform="translate(48 480)" fill="#be1e2d"/>
  <rect id="Rectangle_109" data-name="Rectangle 109" width="48" height="48" transform="translate(144 480)" fill="#be1e2d"/>
  <rect id="Rectangle_110" data-name="Rectangle 110" width="48" height="48" transform="translate(240 480)" fill="#be1e2d"/>
  <rect id="Rectangle_111" data-name="Rectangle 111" width="48" height="48" transform="translate(336 480)" fill="#be1e2d"/>
  <rect id="Rectangle_112" data-name="Rectangle 112" width="48" height="48" transform="translate(432 480)" fill="#be1e2d"/>
  <rect id="Rectangle_113" data-name="Rectangle 113" width="48" height="48" transform="translate(528 480)" fill="#be1e2d"/>
  <rect id="Rectangle_114" data-name="Rectangle 114" width="48" height="48" transform="translate(624 480)" fill="#be1e2d"/>
  <rect id="Rectangle_115" data-name="Rectangle 115" width="48" height="48" transform="translate(720 480)" fill="#be1e2d"/>
  <rect id="Rectangle_116" data-name="Rectangle 116" width="48" height="48" transform="translate(816 480)" fill="#be1e2d"/>
  <rect id="Rectangle_117" data-name="Rectangle 117" width="48" height="48" transform="translate(912 480)" fill="#be1e2d"/>
  <rect id="Rectangle_118" data-name="Rectangle 118" width="48" height="48" transform="translate(0 432)" fill="#be1e2d"/>
  <rect id="Rectangle_119" data-name="Rectangle 119" width="48" height="48" transform="translate(96 432)" fill="#be1e2d"/>
  <rect id="Rectangle_120" data-name="Rectangle 120" width="48" height="48" transform="translate(192 432)" fill="#be1e2d"/>
  <rect id="Rectangle_121" data-name="Rectangle 121" width="48" height="48" transform="translate(288 432)" fill="#be1e2d"/>
  <rect id="Rectangle_122" data-name="Rectangle 122" width="48" height="48" transform="translate(384 432)" fill="#be1e2d"/>
  <rect id="Rectangle_123" data-name="Rectangle 123" width="48" height="48" transform="translate(480 432)" fill="#be1e2d"/>
  <rect id="Rectangle_124" data-name="Rectangle 124" width="48" height="48" transform="translate(576 432)" fill="#be1e2d"/>
  <rect id="Rectangle_125" data-name="Rectangle 125" width="48" height="48" transform="translate(672 432)" fill="#be1e2d"/>
  <rect id="Rectangle_126" data-name="Rectangle 126" width="48" height="48" transform="translate(768 432)" fill="#be1e2d"/>
  <rect id="Rectangle_127" data-name="Rectangle 127" width="48" height="48" transform="translate(864 432)" fill="#be1e2d"/>
  <rect id="Rectangle_128" data-name="Rectangle 128" width="48" height="48" transform="translate(48 384)" fill="#be1e2d"/>
  <rect id="Rectangle_129" data-name="Rectangle 129" width="48" height="48" transform="translate(144 384)" fill="#be1e2d"/>
  <rect id="Rectangle_130" data-name="Rectangle 130" width="48" height="48" transform="translate(240 384)" fill="#be1e2d"/>
  <rect id="Rectangle_131" data-name="Rectangle 131" width="48" height="48" transform="translate(336 384)" fill="#be1e2d"/>
  <rect id="Rectangle_132" data-name="Rectangle 132" width="48" height="48" transform="translate(432 384)" fill="#be1e2d"/>
  <rect id="Rectangle_133" data-name="Rectangle 133" width="48" height="48" transform="translate(528 384)" fill="#be1e2d"/>
  <rect id="Rectangle_134" data-name="Rectangle 134" width="48" height="48" transform="translate(624 384)" fill="#be1e2d"/>
  <rect id="Rectangle_135" data-name="Rectangle 135" width="48" height="48" transform="translate(720 384)" fill="#be1e2d"/>
  <rect id="Rectangle_136" data-name="Rectangle 136" width="48" height="48" transform="translate(816 384)" fill="#be1e2d"/>
  <rect id="Rectangle_137" data-name="Rectangle 137" width="48" height="48" transform="translate(912 384)" fill="#be1e2d"/>
  <rect id="Rectangle_138" data-name="Rectangle 138" width="48" height="48" transform="translate(0 336)" fill="#be1e2d"/>
  <rect id="Rectangle_139" data-name="Rectangle 139" width="48" height="48" transform="translate(96 336)" fill="#be1e2d"/>
  <rect id="Rectangle_140" data-name="Rectangle 140" width="48" height="48" transform="translate(192 336)" fill="#be1e2d"/>
  <rect id="Rectangle_141" data-name="Rectangle 141" width="48" height="48" transform="translate(288 336)" fill="#be1e2d"/>
  <rect id="Rectangle_142" data-name="Rectangle 142" width="48" height="48" transform="translate(384 336)" fill="#be1e2d"/>
  <rect id="Rectangle_143" data-name="Rectangle 143" width="48" height="48" transform="translate(480 336)" fill="#be1e2d"/>
  <rect id="Rectangle_144" data-name="Rectangle 144" width="48" height="48" transform="translate(576 336)" fill="#be1e2d"/>
  <rect id="Rectangle_145" data-name="Rectangle 145" width="48" height="48" transform="translate(672 336)" fill="#be1e2d"/>
  <rect id="Rectangle_146" data-name="Rectangle 146" width="48" height="48" transform="translate(768 336)" fill="#be1e2d"/>
  <rect id="Rectangle_147" data-name="Rectangle 147" width="48" height="48" transform="translate(864 336)" fill="#be1e2d"/>
  <rect id="Rectangle_148" data-name="Rectangle 148" width="48" height="48" transform="translate(48 288)" fill="#be1e2d"/>
  <rect id="Rectangle_149" data-name="Rectangle 149" width="48" height="48" transform="translate(144 288)" fill="#be1e2d"/>
  <rect id="Rectangle_150" data-name="Rectangle 150" width="48" height="48" transform="translate(240 288)" fill="#be1e2d"/>
  <rect id="Rectangle_151" data-name="Rectangle 151" width="48" height="48" transform="translate(336 288)" fill="#be1e2d"/>
  <rect id="Rectangle_152" data-name="Rectangle 152" width="48" height="48" transform="translate(432 288)" fill="#be1e2d"/>
  <rect id="Rectangle_153" data-name="Rectangle 153" width="48" height="48" transform="translate(528 288)" fill="#be1e2d"/>
  <rect id="Rectangle_154" data-name="Rectangle 154" width="48" height="48" transform="translate(624 288)" fill="#be1e2d"/>
  <rect id="Rectangle_155" data-name="Rectangle 155" width="48" height="48" transform="translate(720 288)" fill="#be1e2d"/>
  <rect id="Rectangle_156" data-name="Rectangle 156" width="48" height="48" transform="translate(816 288)" fill="#be1e2d"/>
  <rect id="Rectangle_157" data-name="Rectangle 157" width="48" height="48" transform="translate(912 288)" fill="#be1e2d"/>
  <rect id="Rectangle_158" data-name="Rectangle 158" width="48" height="48" transform="translate(0 240)" fill="#be1e2d"/>
  <rect id="Rectangle_159" data-name="Rectangle 159" width="48" height="48" transform="translate(96 240)" fill="#be1e2d"/>
  <rect id="Rectangle_160" data-name="Rectangle 160" width="48" height="48" transform="translate(192 240)" fill="#be1e2d"/>
  <rect id="Rectangle_161" data-name="Rectangle 161" width="48" height="48" transform="translate(288 240)" fill="#be1e2d"/>
  <rect id="Rectangle_162" data-name="Rectangle 162" width="48" height="48" transform="translate(384 240)" fill="#be1e2d"/>
  <rect id="Rectangle_163" data-name="Rectangle 163" width="48" height="48" transform="translate(480 240)" fill="#be1e2d"/>
  <rect id="Rectangle_164" data-name="Rectangle 164" width="48" height="48" transform="translate(576 240)" fill="#be1e2d"/>
  <rect id="Rectangle_165" data-name="Rectangle 165" width="48" height="48" transform="translate(672 240)" fill="#be1e2d"/>
  <rect id="Rectangle_166" data-name="Rectangle 166" width="48" height="48" transform="translate(768 240)" fill="#be1e2d"/>
  <rect id="Rectangle_167" data-name="Rectangle 167" width="48" height="48" transform="translate(864 240)" fill="#be1e2d"/>
  <rect id="Rectangle_168" data-name="Rectangle 168" width="48" height="48" transform="translate(48 192)" fill="#be1e2d"/>
  <rect id="Rectangle_169" data-name="Rectangle 169" width="48" height="48" transform="translate(144 192)" fill="#be1e2d"/>
  <rect id="Rectangle_170" data-name="Rectangle 170" width="48" height="48" transform="translate(240 192)" fill="#be1e2d"/>
  <rect id="Rectangle_171" data-name="Rectangle 171" width="48" height="48" transform="translate(336 192)" fill="#be1e2d"/>
  <rect id="Rectangle_172" data-name="Rectangle 172" width="48" height="48" transform="translate(432 192)" fill="#be1e2d"/>
  <rect id="Rectangle_173" data-name="Rectangle 173" width="48" height="48" transform="translate(528 192)" fill="#be1e2d"/>
  <rect id="Rectangle_174" data-name="Rectangle 174" width="48" height="48" transform="translate(624 192)" fill="#be1e2d"/>
  <rect id="Rectangle_175" data-name="Rectangle 175" width="48" height="48" transform="translate(720 192)" fill="#be1e2d"/>
  <rect id="Rectangle_176" data-name="Rectangle 176" width="48" height="48" transform="translate(816 192)" fill="#be1e2d"/>
  <rect id="Rectangle_177" data-name="Rectangle 177" width="48" height="48" transform="translate(912 192)" fill="#be1e2d"/>
  <rect id="Rectangle_178" data-name="Rectangle 178" width="48" height="48" transform="translate(0 144)" fill="#be1e2d"/>
  <rect id="Rectangle_179" data-name="Rectangle 179" width="48" height="48" transform="translate(96 144)" fill="#be1e2d"/>
  <rect id="Rectangle_180" data-name="Rectangle 180" width="48" height="48" transform="translate(192 144)" fill="#be1e2d"/>
  <rect id="Rectangle_181" data-name="Rectangle 181" width="48" height="48" transform="translate(288 144)" fill="#be1e2d"/>
  <rect id="Rectangle_182" data-name="Rectangle 182" width="48" height="48" transform="translate(384 144)" fill="#be1e2d"/>
  <rect id="Rectangle_183" data-name="Rectangle 183" width="48" height="48" transform="translate(480 144)" fill="#be1e2d"/>
  <rect id="Rectangle_184" data-name="Rectangle 184" width="48" height="48" transform="translate(576 144)" fill="#be1e2d"/>
  <rect id="Rectangle_185" data-name="Rectangle 185" width="48" height="48" transform="translate(672 144)" fill="#be1e2d"/>
  <rect id="Rectangle_186" data-name="Rectangle 186" width="48" height="48" transform="translate(768 144)" fill="#be1e2d"/>
  <rect id="Rectangle_187" data-name="Rectangle 187" width="48" height="48" transform="translate(864 144)" fill="#be1e2d"/>
  <rect id="Rectangle_188" data-name="Rectangle 188" width="48" height="48" transform="translate(48 96)" fill="#be1e2d"/>
  <rect id="Rectangle_189" data-name="Rectangle 189" width="48" height="48" transform="translate(144 96)" fill="#be1e2d"/>
  <rect id="Rectangle_190" data-name="Rectangle 190" width="48" height="48" transform="translate(240 96)" fill="#be1e2d"/>
  <rect id="Rectangle_191" data-name="Rectangle 191" width="48" height="48" transform="translate(336 96)" fill="#be1e2d"/>
  <rect id="Rectangle_192" data-name="Rectangle 192" width="48" height="48" transform="translate(432 96)" fill="#be1e2d"/>
  <rect id="Rectangle_193" data-name="Rectangle 193" width="48" height="48" transform="translate(528 96)" fill="#be1e2d"/>
  <rect id="Rectangle_194" data-name="Rectangle 194" width="48" height="48" transform="translate(624 96)" fill="#be1e2d"/>
  <rect id="Rectangle_195" data-name="Rectangle 195" width="48" height="48" transform="translate(720 96)" fill="#be1e2d"/>
  <rect id="Rectangle_196" data-name="Rectangle 196" width="48" height="48" transform="translate(816 96)" fill="#be1e2d"/>
  <rect id="Rectangle_197" data-name="Rectangle 197" width="48" height="48" transform="translate(912 96)" fill="#be1e2d"/>
  <rect id="Rectangle_198" data-name="Rectangle 198" width="48" height="48" transform="translate(0 48)" fill="#be1e2d"/>
  <rect id="Rectangle_199" data-name="Rectangle 199" width="48" height="48" transform="translate(96 48)" fill="#be1e2d"/>
  <rect id="Rectangle_200" data-name="Rectangle 200" width="48" height="48" transform="translate(192 48)" fill="#be1e2d"/>
  <rect id="Rectangle_201" data-name="Rectangle 201" width="48" height="48" transform="translate(288 48)" fill="#be1e2d"/>
  <rect id="Rectangle_202" data-name="Rectangle 202" width="48" height="48" transform="translate(384 48)" fill="#be1e2d"/>
  <rect id="Rectangle_203" data-name="Rectangle 203" width="48" height="48" transform="translate(480 48)" fill="#be1e2d"/>
  <rect id="Rectangle_204" data-name="Rectangle 204" width="48" height="48" transform="translate(576 48)" fill="#be1e2d"/>
  <rect id="Rectangle_205" data-name="Rectangle 205" width="48" height="48" transform="translate(672 48)" fill="#be1e2d"/>
  <rect id="Rectangle_206" data-name="Rectangle 206" width="48" height="48" transform="translate(768 48)" fill="#be1e2d"/>
  <rect id="Rectangle_207" data-name="Rectangle 207" width="48" height="48" transform="translate(864 48)" fill="#be1e2d"/>
  <rect id="Rectangle_208" data-name="Rectangle 208" width="48" height="48" transform="translate(48)" fill="#be1e2d"/>
  <rect id="Rectangle_209" data-name="Rectangle 209" width="48" height="48" transform="translate(144)" fill="#be1e2d"/>
  <rect id="Rectangle_210" data-name="Rectangle 210" width="48" height="48" transform="translate(240)" fill="#be1e2d"/>
  <rect id="Rectangle_211" data-name="Rectangle 211" width="48" height="48" transform="translate(336)" fill="#be1e2d"/>
  <rect id="Rectangle_212" data-name="Rectangle 212" width="48" height="48" transform="translate(432)" fill="#be1e2d"/>
  <rect id="Rectangle_213" data-name="Rectangle 213" width="48" height="48" transform="translate(528)" fill="#be1e2d"/>
  <rect id="Rectangle_214" data-name="Rectangle 214" width="48" height="48" transform="translate(624)" fill="#be1e2d"/>
  <rect id="Rectangle_215" data-name="Rectangle 215" width="48" height="48" transform="translate(720)" fill="#be1e2d"/>
  <rect id="Rectangle_216" data-name="Rectangle 216" width="48" height="48" transform="translate(816)" fill="#be1e2d"/>
  <rect id="Rectangle_217" data-name="Rectangle 217" width="48" height="48" transform="translate(912)" fill="#be1e2d"/>
  <rect id="Rectangle_218" data-name="Rectangle 218" width="48" height="48" transform="translate(0 812)" fill="#be1e2d"/>
  <rect id="Rectangle_219" data-name="Rectangle 219" width="48" height="48" transform="translate(96 812)" fill="#be1e2d"/>
  <rect id="Rectangle_220" data-name="Rectangle 220" width="48" height="48" transform="translate(192 812)" fill="#be1e2d"/>
  <rect id="Rectangle_221" data-name="Rectangle 221" width="48" height="48" transform="translate(288 812)" fill="#be1e2d"/>
  <rect id="Rectangle_222" data-name="Rectangle 222" width="48" height="48" transform="translate(384 812)" fill="#be1e2d"/>
  <rect id="Rectangle_223" data-name="Rectangle 223" width="48" height="48" transform="translate(480 812)" fill="#be1e2d"/>
  <rect id="Rectangle_224" data-name="Rectangle 224" width="48" height="48" transform="translate(576 812)" fill="#be1e2d"/>
  <rect id="Rectangle_225" data-name="Rectangle 225" width="48" height="48" transform="translate(672 812)" fill="#be1e2d"/>
  <rect id="Rectangle_226" data-name="Rectangle 226" width="48" height="48" transform="translate(768 812)" fill="#be1e2d"/>
  <rect id="Rectangle_227" data-name="Rectangle 227" width="48" height="48" transform="translate(864 812)" fill="#be1e2d"/>
  <rect id="Rectangle_228" data-name="Rectangle 228" width="48" height="48" transform="translate(48 764)" fill="#be1e2d"/>
  <rect id="Rectangle_229" data-name="Rectangle 229" width="48" height="48" transform="translate(144 764)" fill="#be1e2d"/>
  <rect id="Rectangle_230" data-name="Rectangle 230" width="48" height="48" transform="translate(240 764)" fill="#be1e2d"/>
  <rect id="Rectangle_231" data-name="Rectangle 231" width="48" height="48" transform="translate(336 764)" fill="#be1e2d"/>
  <rect id="Rectangle_232" data-name="Rectangle 232" width="48" height="48" transform="translate(432 764)" fill="#be1e2d"/>
  <rect id="Rectangle_233" data-name="Rectangle 233" width="48" height="48" transform="translate(528 764)" fill="#be1e2d"/>
  <rect id="Rectangle_234" data-name="Rectangle 234" width="48" height="48" transform="translate(624 764)" fill="#be1e2d"/>
  <rect id="Rectangle_235" data-name="Rectangle 235" width="48" height="48" transform="translate(720 764)" fill="#be1e2d"/>
  <rect id="Rectangle_236" data-name="Rectangle 236" width="48" height="48" transform="translate(816 764)" fill="#be1e2d"/>
  <rect id="Rectangle_237" data-name="Rectangle 237" width="48" height="48" transform="translate(912 764)" fill="#be1e2d"/>
</svg>
